<?xml version="1.0" encoding="UTF-8"?><svg id="Calque_1" xmlns="http://www.w3.org/2000/svg" viewBox="0 0 1304.47 1306.9"><defs><style>.cls-1{fill:#fff;}.cls-2{fill:#1d1d1b;}</style></defs><path class="cls-1" d="m1301.34,570.27C1279.3,216.11,1083.5,26.63,731.73,2.05,704.47.58,678.01-.07,652.24,0c-25.77-.08-52.24.57-79.49,2.04C220.97,26.63,25.17,216.11,3.14,570.27c-1.93,28.57-2.94,56.27-3.14,83.18.19,26.92,1.2,54.61,3.14,83.18,22.03,354.15,217.83,543.64,569.61,568.22,27.25,1.47,53.72,2.12,79.49,2.04,25.77.08,52.24-.57,79.49-2.04,351.78-24.58,547.58-214.06,569.61-568.22,1.93-28.57,2.94-56.27,3.14-83.18-.19-26.92-1.2-54.61-3.14-83.18Z"/><g id="_97221fff-9f5f-45e5-b2fa-fe4d6ef25df3"><path class="cls-2" d="m591.09,613.11v-.71c-7.71-13.63-20.59-23.58-35.73-27.61h-1.42c-8.26-2.52-16.77-4.12-25.37-4.77-23.27-3.12-45.57-11.37-65.26-24.16-3.61-2.16-8.28-.99-10.44,2.61-2,3.33-1.17,7.62,1.92,9.97,6.51,4.2,13.29,7.96,20.3,11.27,0,1.01-.91,2.03-1.22,3.15-9.28,32.66,9.53,66.7,42.12,76.22,5.87,1.68,11.96,2.54,18.07,2.54,18.6.1,36.19-8.45,47.6-23.14.88,10.18.26,20.44-1.83,30.45-1.59,3.89.27,8.34,4.16,9.93.2.08.4.16.61.22.81.13,1.63.13,2.44,0,3.26,0,6.16-2.08,7.21-5.18,3.25-13.62,4.04-27.71,2.33-41.61-.52-6.7-2.39-13.22-5.48-19.18Zm-45.37-15.12c.36,1.74.36,3.54,0,5.28-1.99,7.09-9.35,11.23-16.44,9.24-7.09-1.99-11.23-9.35-9.24-16.44.26-.6.57-1.17.91-1.73l6.09.71c6.37.47,12.69,1.49,18.88,3.04l-.2-.1Zm9.54,43.14c-10.91,5.61-23.57,6.78-35.32,3.25-24.67-7.12-38.92-32.86-31.87-57.55v-1.22c5.64,2.18,11.4,4.05,17.25,5.58v.61c-4.75,14.96,3.52,30.94,18.48,35.69,14.96,4.75,30.94-3.52,35.69-18.48.55-1.74.93-3.52,1.14-5.33,6.09,3.08,11.27,7.7,15.02,13.4-3.49,10.26-10.69,18.84-20.2,24.05h-.2Zm275.06-58.46c0-1.12-.81-2.03-1.22-3.15,7.01-3.3,13.79-7.07,20.3-11.27,3.35-2.55,3.99-7.32,1.45-10.67-2.35-3.09-6.65-3.91-9.97-1.92-19.7,12.79-41.99,21.04-65.26,24.16-8.68.64-17.25,2.24-25.58,4.77h-1.22c-15.25,4.03-28.21,14.06-35.93,27.81v.51c-3.17,6.15-5.04,12.89-5.48,19.79-1.71,13.9-.92,27.99,2.33,41.61,1.04,3.09,3.94,5.17,7.21,5.18,4.2.07,7.67-3.28,7.74-7.48.02-.91-.13-1.81-.43-2.67-2.13-10-2.78-20.26-1.93-30.45,11.41,14.69,29,23.24,47.6,23.14,6.11,0,12.19-.85,18.07-2.54,32.82-9.38,51.83-43.6,42.44-76.42-.04-.14-.08-.28-.12-.41Zm-53.79,12.38l6.09-.71c.35.55.65,1.13.91,1.73,1.96,6.98-2.07,14.22-9.03,16.24-6.8,2.1-14.02-1.7-16.12-8.5-.58-1.88-.72-3.86-.42-5.81,6.13-1.51,12.38-2.5,18.68-2.94h-.1Zm7.41,49.33c-11.75,3.53-24.41,2.37-35.32-3.25-9.56-5.22-16.81-13.84-20.3-24.16,3.77-5.66,8.95-10.24,15.02-13.3.15,1.27.39,2.52.71,3.76,3.6,12.07,14.71,20.33,27.3,20.3,15.69-.33,28.15-13.31,27.82-29.01-.05-2.24-.36-4.46-.92-6.62v-.61c5.85-1.53,11.61-3.4,17.25-5.58v1.22c6.88,24.5-7.18,49.99-31.57,57.24Z"/><path class="cls-2" d="m614.74,601.13c-1.62-22.84-20.3-37.35-52.27-39.79-16.89-2.21-33.1-8.06-47.5-17.15-3.5-2.33-8.23-1.37-10.56,2.13s-1.37,8.23,2.13,10.56c16.57,10.55,35.3,17.25,54.81,19.59,13.7,1.01,36.84,5.79,38.26,25.68.27,4,3.6,7.11,7.61,7.1h.51c4.17-.32,7.29-3.95,7-8.12Zm131.74-24.66c19.51-2.34,38.24-9.04,54.81-19.59,3.5-2.33,4.46-7.05,2.13-10.56s-7.05-4.46-10.56-2.13c-14.41,9.21-30.65,15.17-47.6,17.46-31.57,2.44-50.75,16.95-52.27,39.79-.29,4.19,2.88,7.83,7.07,8.12.01,0,.02,0,.03,0h.51c4.01,0,7.34-3.1,7.61-7.1,1.42-20.5,24.97-24.87,38.26-25.98Zm-250.39-52.88c2.57,3.33,7.35,3.95,10.68,1.38s3.95-7.35,1.38-10.68c-.09-.12-.18-.23-.28-.34l-32.38-39.79c-2.57-3.33-7.35-3.95-10.68-1.38s-3.95,7.35-1.38,10.68c.09.12.18.23.28.34l32.38,39.79Zm34.1-22.02c1.13,2.94,3.96,4.87,7.1,4.87,4.2-.04,7.58-3.48,7.54-7.68,0-.84-.15-1.67-.44-2.47l-14.31-37.35c-1.51-3.92-5.92-5.88-9.85-4.36s-5.88,5.92-4.36,9.85l14.31,37.15Zm40.6,1.12c3.98.01,7.29-3.04,7.61-7l2.54-32.28c.35-4.19-2.77-7.87-6.95-8.22-.02,0-.03,0-.05,0-4.13-.4-7.8,2.62-8.2,6.75,0,.08-.01.17-.02.25l-2.54,32.38c-.28,4.19,2.89,7.82,7.09,8.1.17.01.35.02.52.02Z"/><path class="cls-2" d="m1111.87,764.64c-39.58-12.59-132.76-11.47-208.48-8.02,50.75-64.05,50.75-125.96,41.72-155.09-6.9-21.82-17.56-76.83-3.96-98.25,2.52-4.36,6.97-7.26,11.98-7.82,17.86-2.33,21.11-20.91,23.65-35.73.69-5.31,1.88-10.54,3.55-15.63,3.07-5.48,7.29-10.23,12.38-13.91,14.22-11.35,25.32-26.12,32.28-42.93,16.14-39.69-5.48-59.27-6.39-60.09-.84-.64-1.81-1.09-2.84-1.32h-1.42c-16.6-4.33-34.25-1.65-48.82,7.41-6.9,3.35-15.43,7.41-28.01,12.69-27.1,13.65-59.92,8.24-81.2-13.4-45.67-43.85-77.85-56.53-203.81-56.53s-157.73,12.79-203,56.53c-21.28,21.63-54.1,27.05-81.2,13.4-9.46-3.95-18.8-8.19-28.01-12.69-14.57-9.06-32.22-11.74-48.82-7.41h-1.42c-1.03.23-2,.68-2.84,1.32-.91.81-22.53,20.3-6.39,60.09,6.95,16.81,18.06,31.58,32.28,42.93,5.09,3.68,9.31,8.43,12.38,13.91,1.08,5.28,1.66,10.65,1.73,16.04,2.54,14.92,5.68,33.39,23.65,35.73,5.01.55,9.46,3.45,11.98,7.82,13.6,21.42,2.94,76.43-3.96,98.25-9.24,29.13-8.83,91.35,41.72,155.09-75.72-3.45-168.89-4.57-208.48,8.02-4.01,1.29-6.21,5.58-4.92,9.59,1.29,4.01,5.58,6.21,9.59,4.92,41.51-13.19,152.25-10.15,214.97-6.7h2.54l6.6,7c-77.95,1.12-130.83,6.5-157.32,16.04-3.99,1.32-6.16,5.62-4.84,9.61,1.32,3.99,5.62,6.16,9.61,4.84.14-.04.27-.09.4-.15,26.19-9.44,84.24-14.72,168.08-15.33,3.55,3.04,7.21,5.99,10.86,8.93-65.67,3.65-172.55,12.28-213.15,30.45-3.71,1.98-5.12,6.59-3.14,10.3,1.77,3.32,5.69,4.85,9.23,3.61,42.32-18.57,164.22-26.8,225.53-29.94l10.15,7.31,1.01.71c-63.84,6.19-107.49,14.21-129.82,23.95-3.71,1.98-5.12,6.59-3.14,10.3,1.77,3.32,5.69,4.85,9.23,3.61,21.01-9.24,65.47-17.15,129.11-23.14-.29,18.77,2.03,37.49,6.9,55.62,16.54,43.85,39.18,54.61,65.57,56.84,3.79,7.14,9.05,13.4,15.43,18.37-14.19,12.85-25.86,28.24-34.41,45.37-1.51,3.92.44,8.33,4.36,9.85,3.92,1.51,8.33-.44,9.85-4.36,2.74-7.1,10.96-20.3,33.39-42.53,6.49,3.3,13.29,5.95,20.3,7.92-4.92,11.04-8.08,22.79-9.34,34.81-.23,4.2,2.99,7.79,7.18,8.02h.02c4.05,0,7.4-3.16,7.61-7.21,1.34-11.15,4.46-22.01,9.24-32.17,21.97,3.66,44.4,3.66,66.38,0,4.75,10.17,7.87,21.03,9.24,32.17.22,4.04,3.56,7.21,7.61,7.21,4.2-.22,7.43-3.8,7.21-8v-.02c-1.16-12.04-4.2-23.82-9.03-34.92,7.01-1.96,13.81-4.61,20.3-7.92,22.43,22.23,30.45,35.42,33.39,42.53,1.51,3.92,5.92,5.88,9.85,4.36,3.92-1.51,5.88-5.92,4.36-9.85-8.55-17.13-20.22-32.52-34.41-45.37,6.38-4.97,11.63-11.23,15.43-18.37,26.39-2.23,49.02-12.89,65.47-56.74,4.74-18.05,6.96-36.66,6.6-55.32,63.64,5.99,108.2,13.91,129.11,23.14,3.71,1.98,8.32.57,10.3-3.14,1.98-3.71.57-8.32-3.14-10.3-.34-.18-.7-.34-1.06-.47-22.53-10.15-66.99-17.97-131.95-24.16l8.12-5.68,3.15-2.23c60.9,3.04,184.73,11.27,227.56,30.45,3.97,1.39,8.31-.7,9.7-4.67,1.24-3.55-.29-7.47-3.61-9.23-41.21-18.07-148.29-26.59-213.86-30.45,3.86-2.91,7.61-5.89,11.27-8.93,84.04.51,142.1,5.79,168.38,15.33,3.99,1.32,8.3-.85,9.61-4.84,1.27-3.83-.68-7.99-4.44-9.47-26.39-9.54-79.27-14.92-157.32-16.04l6.6-7h2.54c62.42-3.15,173.46-6.5,214.97,6.7,4.32,1.32,8.88-1.11,10.2-5.43,1.32-4.32-1.11-8.88-5.43-10.2Zm-426.29,191.93c-2.1-3.64-6.76-4.89-10.4-2.79-3.64,2.1-4.89,6.76-2.79,10.4,1.62,2.74,3.96,7.1,6.5,12.18-17.57,2.55-35.41,2.55-52.98,0,3.55-7.21,6.39-12.08,6.5-12.18,2.1-3.64.85-8.3-2.79-10.4-3.64-2.1-8.3-.85-10.4,2.79,0,.61-4.26,7.41-8.83,16.85-13.87-2.99-26.52-10.06-36.34-20.3h24.66c22.25-.09,42.68-12.31,53.29-31.87,10.7,19.65,31.32,31.85,53.69,31.77h24.66c-9.81,10.24-22.47,17.31-36.34,20.3-4.57-9.13-8.42-15.83-8.83-16.54l.41-.2Zm173.56-175.18l-.81.61c-8.53,7.1-17.97,14.01-27.2,20.3h-7.92c1.32-17.36,4.57-32.99,10.86-37.66,3.36-2.63,3.95-7.5,1.32-10.86-2.63-3.36-7.5-3.95-10.86-1.32-10.15,8.42-14.62,26.8-16.54,49.02h-6.19c-4.09-.22-7.58,2.91-7.8,6.99,0,.14-.01.28-.01.42-.11,4.2,3.2,7.7,7.4,7.82,0,0,0,0,0,0h5.68v7.51h-1.83c-4.15-.3-7.79,2.76-8.22,6.9-.35,4.17,2.73,7.85,6.9,8.22h2.13c.29,17.26-1.62,34.48-5.68,51.26-14.31,38.06-31.46,46.08-56.33,47.3h-38.37c-25.1-.05-45.54-20.18-45.98-45.27,3.54-3.34,7.49-6.21,11.77-8.53,10.15-6.5,25.07-15.43,19.59-28.32-1.93-4.47-.61-6.6,16.85-18.47l6.39-4.36c7.58-4.07,12.55-11.72,13.19-20.3-.48-6.63-4.05-12.65-9.64-16.24-3.44-2.09-7.91-1.11-10.15,2.23-2.01,3.43-1.09,7.82,2.13,10.15.81.61,2.64,2.33,2.74,3.76s-1.73,4.16-6.7,7.61l-6.29,4.36c-16.54,11.16-29.54,20.3-22.33,36.23-.81,2.54-9.03,7.51-13.5,10.15-3.99,2.35-7.82,4.96-11.47,7.82-3.64-2.86-7.48-5.47-11.47-7.82-4.83-2.65-9.36-5.81-13.5-9.44,7.21-16.95-5.89-25.78-22.33-37.05l-6.29-4.36c-4.87-3.45-6.7-6.19-6.7-7.61s1.83-3.15,2.64-3.76c3.41-2.46,4.18-7.21,1.73-10.63-2.28-3.16-6.57-4.09-9.95-2.16-5.59,3.59-9.16,9.61-9.64,16.24.64,8.58,5.62,16.23,13.19,20.3l6.39,4.36c17.56,11.88,18.78,14.01,16.85,18.47-5.48,12.99,9.03,21.82,19.59,28.32,4.09,2.34,8.03,4.95,11.77,7.82-.11,25.37-20.71,45.88-46.08,45.88h-15.83c-37.76.91-60.9,1.42-78.97-47.3-4.06-16.78-5.97-34-5.68-51.26h2.13c4.2-.36,7.32-4.07,6.95-8.27-.36-4.2-4.07-7.32-8.27-6.95h-1.42v-7.51h5.68c4.2,0,7.61-3.41,7.61-7.61s-3.41-7.61-7.61-7.61h-6.19c-1.93-22.23-5.89-40.6-16.54-49.02-3.56-2.89-8.79-2.34-11.67,1.22-2.89,3.56-2.34,8.79,1.22,11.67,6.29,4.97,9.24,20.3,10.76,37.66h-9.64c-8.63-6.5-17.25-13.3-25.17-20.3-.44-.54-.95-1.02-1.52-1.42-2.64-2.33-5.28-4.67-7.71-7l23.65,1.52h.61c4.2.17,7.75-3.1,7.92-7.31.17-4.2-3.1-7.75-7.31-7.92,0,0-15.94-1.22-40.6-2.54-55.21-62.83-56.64-123.83-47.91-151.43,0-.81,23.65-77.34,2.33-110.94-4.9-7.94-13.09-13.26-22.33-14.51-6.29-.81-8.32-10.15-10.15-23.24-.86-6.36-2.36-12.61-4.47-18.68-3.85-7.83-9.53-14.61-16.54-19.79-12.48-9.76-22.2-22.6-28.22-37.25-10.15-23.95-2.33-37.15,1.01-41.41,7.43-.65,14.85,1.29,21.01,5.48.71.61,76.33,56.03,109.52,56.03h3.55c-30.45,21.82-48.31,49.73-48.31,77.04,0,4.2,3.41,7.61,7.61,7.61s7.61-3.41,7.61-7.61c0-28.52,26.39-59.78,67.29-79.78,15.92-2.37,31.3-7.49,45.47-15.12,3.71-1.97,5.13-6.58,3.16-10.29-1.97-3.71-6.58-5.13-10.29-3.16-.09.05-.19.1-.28.16-23.81,11.74-50.21,17.26-76.73,16.04-12.69,0-36.95-12.28-59.48-25.88,32.05,14.4,69.67,7.41,94.39-17.56,40.6-38.77,65.87-52.27,192.85-52.27s152.25,13.6,192.85,52.27c15.44,15.74,36.52,24.68,58.56,24.87,11.96-.18,23.79-2.51,34.92-6.9-22.43,13.5-46.69,25.68-59.27,25.68-26.52,1.22-52.92-4.29-76.73-16.04-3.71-1.97-8.32-.55-10.29,3.16-1.91,3.6-.64,8.07,2.88,10.13,14.25,7.73,29.74,12.92,45.78,15.33,40.6,20.3,67.29,50.75,67.29,79.78,0,4.2,3.41,7.61,7.61,7.61s7.61-3.41,7.61-7.61c0-27.4-17.97-55.32-48.31-77.04h4.47c33.19,0,108.81-55.42,109.52-56.03,6.14-4.17,13.52-6.1,20.91-5.48,3.35,4.36,10.66,17.56,1.01,41.41-6.02,14.65-15.74,27.49-28.22,37.25-7.02,5.18-12.69,11.97-16.54,19.79-2.11,6.06-3.6,12.32-4.47,18.68-2.33,13.5-4.26,22.43-10.15,23.24-9.46,1.15-17.88,6.58-22.84,14.72-21.42,33.6,2.03,110.23,2.33,110.94,8.83,27.71,7.31,88.71-47.91,151.43-24.26,1.32-40.6,2.54-40.6,2.54-4.2.17-7.48,3.71-7.31,7.92s3.71,7.48,7.92,7.31h.61l23.65-1.52c-2.13,2.33-5.28,4.77-8.12,7.21Z"/><path class="cls-2" d="m801.9,526.43c2.29-.01,4.45-1.06,5.89-2.84l32.38-39.79c2.76-3.17,2.42-7.98-.76-10.74-3.17-2.76-7.98-2.42-10.74.76-.1.11-.19.22-.28.34l-32.38,39.79c-2.63,3.28-2.11,8.07,1.16,10.7,1.34,1.08,3.01,1.67,4.73,1.68v.1Zm-37.55-20.5c.91.17,1.83.17,2.74,0,3.15,0,5.97-1.94,7.1-4.87l14.31-37.35c1.51-3.92-.44-8.33-4.36-9.85s-8.33.44-9.85,4.36l-14.31,37.35c-1.76,3.82-.08,8.34,3.74,10.1.21.09.42.18.63.26Zm-31.16-3.15c4.19-.32,7.33-3.98,7.01-8.17,0-.02,0-.03,0-.05l-2.54-32.38c-.34-4.2-4.02-7.34-8.22-7-4.2.34-7.34,4.02-7,8.22l2.54,32.38c.32,4.19,3.98,7.33,8.17,7.01.02,0,.03,0,.05,0Z"/><circle class="cls-2" cx="531.51" cy="854.37" r="10.66"/><circle class="cls-2" cx="535.06" cy="890.6" r="10.66"/><circle class="cls-2" cx="562.87" cy="914.45" r="10.66"/><circle class="cls-2" cx="572.21" cy="877.41" r="10.66"/><circle class="cls-2" cx="601.85" cy="896.08" r="10.66"/><circle class="cls-2" cx="772.47" cy="854.37" r="10.66"/><circle class="cls-2" cx="768.91" cy="890.6" r="10.66"/><circle class="cls-2" cx="741.1" cy="914.45" r="10.66"/><circle class="cls-2" cx="731.77" cy="877.41" r="10.66"/><circle class="cls-2" cx="702.13" cy="896.08" r="10.66"/><path class="cls-2" d="m688.12,678.37c-4.19-.35-7.87,2.77-8.22,6.95,0,.02,0,.03,0,.05-2.88,20.86-12.71,40.14-27.91,54.71-15.18-14.6-24.95-33.93-27.71-54.81-.34-4.2-4.02-7.34-8.22-7-4.2.34-7.34,4.02-7,8.22,3.68,27.06,17.15,51.83,37.86,69.63,1.35,1.1,3.03,1.71,4.77,1.73,1.74-.01,3.42-.62,4.77-1.73,20.71-17.8,34.18-42.57,37.86-69.63.33-3.89-2.35-7.4-6.19-8.12Zm-133.88,27.4c-3.57-1.94-8.04-.74-10.15,2.74-2.03,3.55-4.67,7.31-7.41,11.27-13.6,19.69-34.1,49.53-5.18,81.2,3.22,2.71,8.02,2.29,10.73-.93,2.21-2.62,2.39-6.4.44-9.22-19.18-20.81-9.44-38.77,6.5-61.91,2.94-4.36,5.79-8.42,8.02-12.28,2.26-3.55,1.21-8.25-2.33-10.51-.2-.13-.4-.24-.61-.35Zm206.24,2.74c-2.1-3.64-6.76-4.89-10.4-2.79-3.64,2.1-4.89,6.76-2.79,10.4,2.23,3.86,5.07,7.92,8.02,12.28,15.94,23.14,25.68,41.11,6.5,61.91-3.22,2.71-3.63,7.51-.93,10.73,2.71,3.22,7.51,3.63,10.73.93.52-.44.98-.94,1.37-1.5,28.93-31.36,8.42-60.9-5.18-81.2-2.54-3.45-5.18-7.21-7.31-10.76Zm-190.82,96.73c1.29-4.01-.91-8.3-4.92-9.59-4.01-1.29-8.3.91-9.59,4.92-5.85,18.84,2.22,39.21,19.39,48.92,3.64,2.1,8.3.85,10.4-2.79s.85-8.3-2.79-10.4c-10.97-6.11-16.18-19.06-12.48-31.06Zm159.66,43.95c17.17-9.71,25.24-30.08,19.39-48.92-1.29-4.01-5.58-6.21-9.59-4.92-4.01,1.29-6.21,5.58-4.92,9.59h0c3.53,11.91-1.65,24.68-12.48,30.75-3.64,2.1-4.89,6.76-2.79,10.4s6.76,4.89,10.4,2.79v.3Zm-48.11-42.43c-14.12,16.17-38.68,17.83-54.85,3.71-1.32-1.15-2.56-2.39-3.71-3.71-2.8-3.25-7.71-3.61-10.96-.81-3.25,2.8-3.61,7.71-.81,10.96,19.4,22.65,53.49,25.28,76.14,5.87,2.11-1.8,4.07-3.77,5.87-5.87,2.8-3.25,2.44-8.16-.81-10.96-3.25-2.8-8.16-2.44-10.96.81h.1Zm-227.05-148.49c-3.5-2.32-8.23-1.37-10.55,2.14s-1.37,8.23,2.14,10.55c.35.23.72.44,1.11.61,26.69,14.72,38.26,36.44,38.26,44.25,0,4.2,3.41,7.61,7.61,7.61s7.61-3.41,7.61-7.61c0-15.73-17.25-41.61-46.18-57.55Zm406.8,3.04c-2.01-3.59-6.5-4.94-10.15-3.04-29.13,15.94-46.59,41.82-46.59,57.65,0,4.2,3.41,7.61,7.61,7.61s7.61-3.41,7.61-7.61c0-7.82,11.57-29.64,38.26-44.25,3.74-1.92,5.22-6.5,3.3-10.25-.02-.04-.04-.07-.06-.11Z"/></g></svg>